HIERARCHY
ROOT Hips
{
  OFFSET -132.153 92.0252 103.103
  CHANNELS 6 Xposition Yposition Zposition Zrotation Xrotation Yrotation
  JOINT RightUpLeg
  {
    OFFSET -8.9458 -8.66707 0.101652
    CHANNELS 3 Zrotation Xrotation Yrotation
    JOINT RightLeg
    {
      OFFSET 0 -44.4227 1.3727
      CHANNELS 3 Zrotation Xrotation Yrotation
      JOINT RightFoot
      {
        OFFSET 0.253549 -42.0924 -1.46059
        CHANNELS 3 Zrotation Xrotation Yrotation
        JOINT RightToes
        {
          OFFSET 0.04 -4.41509 8.4991
          CHANNELS 3 Zrotation Xrotation Yrotation
          End Site
          {
            OFFSET -0.08 -0.137448 9.77979
          }
        }
      }
    }
  }
  JOINT Spine
  {
    OFFSET 0 11.8905 0
    CHANNELS 3 Zrotation Xrotation Yrotation
    JOINT Spine1
    {
      OFFSET 0 25.6574 0.127663
      CHANNELS 3 Zrotation Xrotation Yrotation
      JOINT HEad
      {
        OFFSET 0 8.73416 0.011341
        CHANNELS 3 Zrotation Xrotation Yrotation
        End Site
        {
          OFFSET -0.29 12.7742 2.51395
        }
      }
      JOINT LeftShoulder1
      {
        OFFSET 8.99 -0.362252 -0.22
        CHANNELS 3 Zrotation Xrotation Yrotation
        JOINT LeftArm
        {
          OFFSET 10.2827 -0.00338 0.322123
          CHANNELS 3 Zrotation Xrotation Yrotation
          JOINT LeftForeArm
          {
            OFFSET 32.7669 0.099144 -1.42434
            CHANNELS 3 Zrotation Xrotation Yrotation
            JOINT LeftHand
            {
              OFFSET 27.5643 0.085362 1.02216
              CHANNELS 3 Zrotation Xrotation Yrotation
              End Site
              {
                OFFSET 16.7443 -0.6 1.50291
              }
            }
          }
        }
      }
      JOINT RightShoulder
      {
        OFFSET -8.99 -0.362252 -0.22
        CHANNELS 3 Zrotation Xrotation Yrotation
        JOINT RightArm
        {
          OFFSET -10.2827 -0.00338 0.322123
          CHANNELS 3 Zrotation Xrotation Yrotation
          JOINT RightForeArm
          {
            OFFSET -32.8971 0.099144 -1.42434
            CHANNELS 3 Zrotation Xrotation Yrotation
            JOINT RightHand
            {
              OFFSET -27.4921 0.085362 1.02216
              CHANNELS 3 Zrotation Xrotation Yrotation
              End Site
              {
                OFFSET -16.6312 -0.6 1.50291
              }
            }
          }
        }
      }
    }
  }
  JOINT LeftUpLeg
  {
    OFFSET 8.9458 -8.66707 0.101652
    CHANNELS 3 Zrotation Xrotation Yrotation
    JOINT LeftLeg
    {
      OFFSET 0 -44.4227 1.3727
      CHANNELS 3 Zrotation Xrotation Yrotation
      JOINT LeftFoot
      {
        OFFSET -0.253549 -42.0924 -1.46059
        CHANNELS 3 Zrotation Xrotation Yrotation
        JOINT LeftToes
        {
          OFFSET -0.04 -4.41509 8.4991
          CHANNELS 3 Zrotation Xrotation Yrotation
          End Site
          {
            OFFSET 0.08 -0.047448 9.77979
          }
        }
      }
    }
  }
}
MOTION
Frames:	7
Frame Time:	0.0166667
-132.153 92.0252 103.103 13.0813 0.996715 116.933 -19.3209 0.74022 10.5462 1.97718 26.1455 13.8931 15.255 5.70446 -1.86863 -21.4104 -20.8109 -6.99291 -1.02271 14.0236 5.89422 0.12722 28.1255 11.086 1.77379 -23.7457 30.1715 1.76556e-031 -3.18055e-015 3.18055e-015 -52.2528 -32.8908 -0.258343 -18.7528 34.7938 -98.0883 4.44769 8.82831 -28.11 10.0194 3.34366 22.1959 54.3354 -7.46996 69.7937 -0.0147332 41.1615 130.075 3.30183 7.89042 -57.8481 27.148 -18.8615 -1.28667 -23.3662 58.9748 15.6344 -21.9866 15.3795 4.33993 -10.2155 -25.8403 -18.0042 
-133.59 93.2974 102.295 11.8575 0.142237 113.578 -18.7531 -3.37707 7.98225 0.330909 26.9415 12.355 17.0041 11.7913 -2.93718 -22.8581 -21.9669 -5.39483 -1.83795 13.722 5.81945 -0.404828 27.6177 10.8561 0.856113 -24.3312 33.9747 3.18055e-015 3.18055e-015 9.54166e-015 -49.2913 -40.1438 0.877846 -21.981 35.9689 -94.6908 4.244 8.84491 -29.3819 11.2297 3.6194 22.2902 50.7648 -5.63567 66.4399 1.04611 39.9121 129.38 1.47424 8.88143 -54.5219 28.5456 -17.7088 -1.12958 -23.3995 55.4404 14.1231 -21.5481 15.5804 4.28603 -8.97552 -23.2322 -17.9387 
-134.936 94.3285 101.664 10.9384 -0.837345 111.304 -17.3632 -7.515 5.80594 -0.568609 30.1275 8.16527 18.2819 18.5045 -4.18742 -27.1151 -25.4671 -3.79667 -2.12178 13.5107 5.15489 -0.248785 27.302 9.46445 0.0705918 -25.3744 38.196 1.76556e-031 -3.18055e-015 3.18055e-015 -46.0549 -49.6905 0.624276 -28.3369 36.768 -86.0331 4.21295 8.79094 -31.2999 12.0591 3.8507 22.6147 47.594 -4.54799 64.7819 2.41767 39.3659 128.169 0.21923 9.49102 -51.5694 29.6579 -16.5847 -2.28691 -21.6593 51.5618 15.0632 -19.5552 16.1771 3.97053 -9.09251 -23.3697 -18.2638 
-136.195 94.9829 101.205 10.4886 -1.66222 110.594 -15.7745 -10.9825 3.97594 -0.462584 35.6936 2.66205 19.2214 24.6024 -5.40187 -33.5849 -30.6348 -3.63548 -1.69832 13.4795 3.85376 0.531702 27.2655 6.83435 -0.355807 -26.3644 42.3295 -3.18055e-015 -2.38542e-015 -3.18055e-015 -43.8606 -59.6463 -2.23711 -36.5938 34.883 -72.608 3.83465 8.83918 -33.7162 12.599 4.04519 23.0792 44.452 -3.91856 64.7254 3.70977 38.9353 126.956 -0.292753 9.71952 -49.8428 30.2996 -15.7117 -4.74781 -18.7718 47.4892 19.1113 -16.0808 17.3432 3.39245 -9.70328 -24.7625 -17.991 
-137.375 95.2149 100.925 10.6071 -2.05515 111.598 -14.5992 -13.017 2.35547 1.39974 42.5456 -2.7705 20.4469 28.7135 -6.48028 -40.4269 -35.4367 -5.63246 -0.735202 13.6088 2.0784 1.75483 27.4538 3.25071 -0.485468 -26.6733 45.67 -6.36111e-015 0 -0 -46.2463 -67.8231 -11.1431 -43.0008 28.4104 -57.6425 2.61498 9.20855 -36.2214 12.9367 4.19031 23.4965 41.4649 -3.62668 66.0034 4.54255 38.3256 126.096 -0.0781048 9.63187 -49.6723 30.3895 -15.1267 -7.78753 -14.9716 43.4102 24.3858 -11.9837 18.3379 2.58901 -9.01198 -24.305 -15.1992 
-138.491 95.0159 100.775 11.2569 -1.84313 114.083 -14.0677 -13.0449 0.8173 5.70447 48.8484 -7.34009 22.1785 29.8868 -7.27341 -45.2805 -38.1348 -8.60161 0.438494 13.7974 0.132795 3.15895 27.7197 -0.693366 -0.555036 -25.8797 47.5545 1.59028e-015 1.59028e-015 -0 -50.1048 -61.2223 -23.4475 -39.992 8.66503 -52.7639 -0.330993 10.2889 -37.0159 13.0404 4.24556 23.6854 39.3916 -3.90073 68.3448 4.73871 37.7779 125.504 0.678418 9.30471 -50.7466 29.8943 -14.8208 -10.2054 -10.4877 39.6524 27.8869 -8.6977 18.6174 1.86125 -6.50655 -20.1167 -9.60222 
-139.557 94.4381 100.609 12.2208 -1.07402 117.451 -13.9228 -10.9165 -0.520964 11.8057 52.5961 -10.8889 23.729 28.4757 -7.50605 -47.6123 -38.9046 -11.4076 1.56386 13.9257 -1.62748 4.46579 27.8942 -4.25117 -0.697549 -23.9662 47.6687 -1.59028e-015 2.38542e-015 3.18055e-015 -45.0574 -46.0584 -29.3044 -35.288 -17.9333 -52.0571 -4.23589 11.6879 -36.026 12.7069 4.15628 23.611 39.1502 -4.88324 71.4731 4.26246 37.7213 124.875 1.59675 8.8745 -52.4701 28.8815 -14.7945 -10.9332 -5.85952 36.5341 27.8905 -7.10058 18.5925 1.49383 -3.97909 -14.2202 -3.55847 
